<?xml version="1.0" standalone="no"?>
<!DOCTYPE svg PUBLIC "-//W3C//DTD SVG 20010904//EN"
 "http://www.w3.org/TR/2001/REC-SVG-20010904/DTD/svg10.dtd">
<svg version="1.0" xmlns="http://www.w3.org/2000/svg"
 width="1280.000000pt" height="953.000000pt" viewBox="0 0 1280.000000 953.000000"
 preserveAspectRatio="xMidYMid meet">
<metadata>
Created by potrace 1.15, written by Peter Selinger 2001-2017
</metadata>
<g transform="translate(0.000000,953.000000) scale(0.100000,-0.100000)"
fill="#000000" stroke="none">
<path d="M8870 9522 c0 -14 73 -79 125 -111 79 -50 187 -86 390 -131 667 -147
1387 -445 1809 -748 103 -74 252 -216 316 -300 61 -81 124 -206 145 -287 18
-70 21 -210 5 -280 -47 -214 -169 -388 -444 -633 l-141 -125 -7 74 c-27 272
-133 488 -342 694 -358 355 -960 586 -1888 725 -200 30 -196 32 -107 -53 98
-93 233 -174 634 -380 465 -238 576 -307 715 -447 214 -213 211 -417 -8 -661
-60 -68 -206 -189 -302 -252 -84 -55 -337 -183 -346 -174 -3 3 0 33 7 66 16
83 7 239 -20 321 -72 226 -294 424 -581 519 -143 48 -325 70 -454 57 l-67 -8
38 -30 c21 -16 97 -71 168 -121 279 -197 389 -348 372 -516 -26 -255 -412
-506 -999 -651 -891 -219 -2113 -221 -3076 -5 -269 60 -507 151 -654 248 -84
56 -172 155 -197 222 -27 71 -27 158 -2 231 56 157 194 250 556 374 220 76
363 143 430 204 49 44 49 45 20 41 -16 -3 -79 -12 -139 -20 -513 -73 -962
-213 -1181 -369 -76 -55 -158 -144 -190 -205 -66 -131 -48 -294 50 -447 19
-30 30 -54 24 -54 -6 0 -46 9 -88 20 -383 98 -776 337 -886 540 -27 49 -30 65
-30 140 0 78 3 90 35 150 105 195 374 372 975 640 529 237 628 287 602 301
-28 16 -252 31 -367 24 -664 -37 -1338 -274 -1715 -603 -225 -196 -341 -438
-319 -666 l7 -69 -78 42 c-325 175 -524 386 -575 610 -18 79 -8 231 20 306 98
256 331 460 792 691 565 284 1291 486 2198 612 l125 17 3 68 3 67 -63 0 c-104
0 -501 -33 -728 -61 -999 -121 -1902 -372 -2625 -729 -488 -241 -763 -524
-807 -830 -58 -393 332 -800 1027 -1073 174 -68 254 -94 525 -172 l214 -62 41
-66 c231 -376 685 -688 1391 -955 782 -296 1878 -597 2749 -757 875 -160 1559
-225 2373 -226 530 -1 740 13 1467 101 438 53 557 70 730 101 355 66 674 173
878 295 215 129 395 317 488 509 40 85 82 195 72 195 -3 0 -62 -25 -132 -56
-874 -387 -1884 -613 -3016 -674 -241 -13 -892 -13 -1140 0 -1277 66 -2593
321 -3855 749 -418 141 -586 208 -835 331 -235 116 -480 249 -460 250 6 0 57
-12 115 -26 606 -147 1429 -271 2185 -328 573 -44 933 -56 1637 -56 1341 0
2162 60 3060 224 1045 191 2079 530 2598 851 411 255 652 572 676 889 28 360
-227 716 -728 1019 -166 100 -525 275 -748 363 -658 260 -1429 440 -2243 524
-230 23 -207 22 -207 12z"/>
<path d="M6085 6859 c-305 -24 -669 -75 -875 -124 -155 -37 -341 -97 -347
-112 -8 -21 49 -122 106 -184 188 -208 547 -316 1116 -335 184 -6 483 5 685
27 191 20 617 80 710 100 205 45 322 111 374 212 27 52 28 60 17 97 -42 139
-311 239 -761 280 -553 51 -764 59 -1025 39z"/>
<path d="M12177 6625 c-305 -209 -745 -439 -1147 -602 -735 -297 -1579 -485
-2655 -592 -430 -43 -827 -69 -1630 -104 -138 -6 -404 12 -778 53 -590 64
-792 71 -1057 34 -58 -8 -141 -24 -185 -36 -82 -22 -170 -56 -147 -57 7 -1
158 -19 335 -41 748 -91 1315 -144 1947 -181 303 -17 1192 -23 1480 -10 856
40 1638 147 2302 315 980 249 1506 644 1642 1234 8 34 11 62 8 61 -4 0 -56
-34 -115 -74z"/>
<path d="M2580 5381 c0 -4 41 -59 91 -122 694 -869 1895 -1410 3679 -1658 710
-98 1690 -151 2810 -151 605 0 900 20 1201 80 591 118 914 397 983 848 l6 42
-137 -69 c-561 -281 -1181 -444 -1953 -512 -196 -17 -847 -23 -1080 -10 -1071
60 -2233 291 -3480 692 -373 120 -470 161 -1040 439 -403 197 -522 251 -707
319 -126 46 -373 114 -373 102z"/>
<path d="M4735 3505 c107 -101 240 -202 390 -297 133 -83 445 -239 610 -303
777 -303 1687 -426 2440 -329 439 56 798 176 1085 361 87 57 223 163 217 169
-7 8 -553 -17 -922 -42 -465 -31 -1020 -42 -1255 -25 -400 29 -601 72 -1200
256 -776 238 -1037 296 -1334 295 l-121 -1 90 -84z"/>
<path d="M4926 2926 c24 -167 111 -301 299 -461 102 -87 388 -280 515 -348
180 -97 431 -184 668 -232 656 -134 1322 -77 1812 156 132 63 276 158 366 243
l69 65 -556 1 c-562 0 -817 8 -1144 35 -721 61 -1299 213 -1842 486 l-193 96
6 -41z"/>
<path d="M4990 2065 c0 -128 55 -240 181 -365 132 -132 408 -314 599 -394 549
-232 1222 -181 1669 127 78 54 250 211 241 220 -10 10 -318 27 -690 37 -423
12 -652 24 -820 46 -368 47 -686 147 -1027 325 l-153 79 0 -75z"/>
<path d="M4790 1165 c0 -2 11 -33 24 -67 118 -316 422 -680 796 -955 104 -76
210 -146 210 -137 0 2 7 40 16 82 30 147 131 314 265 436 140 127 307 298 356
364 30 41 53 75 51 76 -1 2 -55 0 -118 -5 -462 -31 -883 17 -1413 162 -194 53
-187 51 -187 44z"/>
</g>
</svg>
